<svg width="40" height="40" viewBox="0 0 40 40" fill="none" xmlns="http://www.w3.org/2000/svg">
<rect width="40" height="40" rx="20" fill="white"/>
<path fill-rule="evenodd" clip-rule="evenodd" d="M26 15C26 14.45 25.55 14 25 14C24.45 14 24 14.45 24 15V25C24 25.55 24.45 26 25 26C25.55 26 26 25.55 26 25V15ZM18.18 20L14.29 16.11C13.91 15.73 13.91 15.09 14.29 14.7C14.68 14.31 15.31 14.31 15.7 14.7L20.29 19.3C20.68 19.69 20.68 20.32 20.29 20.71L15.7 25.3C15.31 25.69 14.68 25.69 14.29 25.3C13.9 24.91 13.9 24.28 14.29 23.89L18.18 20Z" fill="black" fill-opacity="0.6"/>
</svg>
