<svg width="40" height="40" viewBox="0 0 40 40" fill="none" xmlns="http://www.w3.org/2000/svg">
<rect width="40" height="40" rx="20" fill="white"/>
<path fill-rule="evenodd" clip-rule="evenodd" d="M16 15C16 14.45 15.55 14 15 14C14.45 14 14 14.45 14 15V25C14 25.55 14.45 26 15 26C15.55 26 16 25.55 16 25V15ZM21.82 20L25.7 23.89C26.09 24.27 26.09 24.91 25.71 25.29C25.32 25.68 24.69 25.68 24.3 25.29L19.71 20.7C19.32 20.31 19.32 19.68 19.71 19.29L24.3 14.7C24.69 14.31 25.32 14.31 25.71 14.7C26.1 15.09 26.1 15.72 25.71 16.11L21.82 20Z" fill="black" fill-opacity="0.6"/>
</svg>
